<?xml version="1.0" encoding="UTF-8" standalone="no"?>
<!-- Created with Inkscape (http://www.inkscape.org/) -->

<svg
   xmlns:dc="http://purl.org/dc/elements/1.1/"
   xmlns:cc="http://creativecommons.org/ns#"
   xmlns:rdf="http://www.w3.org/1999/02/22-rdf-syntax-ns#"
   xmlns:svg="http://www.w3.org/2000/svg"
   xmlns="http://www.w3.org/2000/svg"
   xmlns:sodipodi="http://sodipodi.sourceforge.net/DTD/sodipodi-0.dtd"
   xmlns:inkscape="http://www.inkscape.org/namespaces/inkscape"
   version="1.1"
   id="svg3802"
   width="355"
   height="355"
   viewBox="0 0 355 355"
   sodipodi:docname="chicken_down.svg"
   inkscape:version="0.92.5 (2060ec1f9f, 2020-04-08)">
  <metadata
     id="metadata3808">
    <rdf:RDF>
      <cc:Work
         rdf:about="">
        <dc:format>image/svg+xml</dc:format>
        <dc:type
           rdf:resource="http://purl.org/dc/dcmitype/StillImage" />
        <dc:title></dc:title>
      </cc:Work>
    </rdf:RDF>
  </metadata>
  <defs
     id="defs3806" />
  <sodipodi:namedview
     pagecolor="#ffffff"
     bordercolor="#666666"
     borderopacity="1"
     objecttolerance="10"
     gridtolerance="10"
     guidetolerance="10"
     inkscape:pageopacity="0"
     inkscape:pageshadow="2"
     inkscape:window-width="3708"
     inkscape:window-height="2032"
     id="namedview3804"
     showgrid="false"
     inkscape:zoom="3.547485"
     inkscape:cx="175.36868"
     inkscape:cy="186.35719"
     inkscape:window-x="132"
     inkscape:window-y="54"
     inkscape:window-maximized="1"
     inkscape:current-layer="svg3802" />
  <path
     style="color:#000000;font-style:normal;font-variant:normal;font-weight:normal;font-stretch:normal;font-size:medium;line-height:normal;font-family:sans-serif;font-variant-ligatures:normal;font-variant-position:normal;font-variant-caps:normal;font-variant-numeric:normal;font-variant-alternates:normal;font-feature-settings:normal;text-indent:0;text-align:start;text-decoration:none;text-decoration-line:none;text-decoration-style:solid;text-decoration-color:#000000;letter-spacing:normal;word-spacing:normal;text-transform:none;writing-mode:lr-tb;direction:ltr;text-orientation:mixed;dominant-baseline:auto;baseline-shift:baseline;text-anchor:start;white-space:normal;shape-padding:0;clip-rule:nonzero;display:inline;overflow:visible;visibility:visible;opacity:1;isolation:auto;mix-blend-mode:normal;color-interpolation:sRGB;color-interpolation-filters:linearRGB;solid-color:#000000;solid-opacity:1;vector-effect:none;fill:#260f07;fill-opacity:1;fill-rule:nonzero;stroke:none;stroke-width:11.9783411;stroke-linecap:butt;stroke-linejoin:miter;stroke-miterlimit:4;stroke-dasharray:none;stroke-dashoffset:0;stroke-opacity:1;color-rendering:auto;image-rendering:auto;shape-rendering:auto;text-rendering:auto;enable-background:accumulate"
     d="m 146.81323,267.513 -11.96933,0.4841 0.91601,22.66994 -27.57934,19.38922 0.004,0.004 a 5.8905312,6.0397563 0 0 0 -2.50689,4.93458 5.8905312,6.0397563 0 0 0 5.89199,6.03956 5.8905312,6.0397563 0 0 0 3.49667,-1.18776 l 0.006,0.009 21.26444,-14.95133 0.68026,16.85714 a 5.9999883,6.0397563 0 0 0 -0.007,0.23755 5.9999883,6.0397563 0 0 0 5.99997,6.03956 5.9999883,6.0397563 0 0 0 5.99816,-5.97837 h 0.009 l -0.65327,-16.18768 15.97532,11.84157 a 5.9999883,6.0397563 0 0 0 4.14995,1.68805 5.9999883,6.0397563 0 0 0 5.99997,-6.03956 5.9999883,6.0397563 0 0 0 -2.72824,-5.05517 l -0.009,-0.007 -24.00887,-17.79654 z"
     id="path6106"
     inkscape:connector-curvature="0" />
  <path
     inkscape:connector-curvature="0"
     style="color:#000000;font-style:normal;font-variant:normal;font-weight:normal;font-stretch:normal;font-size:medium;line-height:normal;font-family:sans-serif;font-variant-ligatures:normal;font-variant-position:normal;font-variant-caps:normal;font-variant-numeric:normal;font-variant-alternates:normal;font-feature-settings:normal;text-indent:0;text-align:start;text-decoration:none;text-decoration-line:none;text-decoration-style:solid;text-decoration-color:#000000;letter-spacing:normal;word-spacing:normal;text-transform:none;writing-mode:lr-tb;direction:ltr;text-orientation:mixed;dominant-baseline:auto;baseline-shift:baseline;text-anchor:start;white-space:normal;shape-padding:0;clip-rule:nonzero;display:inline;overflow:visible;visibility:visible;opacity:1;isolation:auto;mix-blend-mode:normal;color-interpolation:sRGB;color-interpolation-filters:linearRGB;solid-color:#000000;solid-opacity:1;vector-effect:none;fill:#260f07;fill-opacity:1;fill-rule:nonzero;stroke:none;stroke-width:11.9783411;stroke-linecap:butt;stroke-linejoin:miter;stroke-miterlimit:4;stroke-dasharray:none;stroke-dashoffset:0;stroke-opacity:1;color-rendering:auto;image-rendering:auto;shape-rendering:auto;text-rendering:auto;enable-background:accumulate"
     d="m 235.87336,265.86598 -11.96934,0.4841 0.91601,22.66994 -27.57934,19.38922 0.004,0.004 a 5.8905312,6.0397563 0 0 0 -2.50689,4.93459 5.8905312,6.0397563 0 0 0 5.89199,6.03956 5.8905312,6.0397563 0 0 0 3.49668,-1.18776 l 0.006,0.009 21.26443,-14.95133 0.68026,16.85714 a 5.9999883,6.0397563 0 0 0 -0.007,0.23754 5.9999883,6.0397563 0 0 0 5.99997,6.03957 5.9999883,6.0397563 0 0 0 5.99817,-5.97837 h 0.009 l -0.65327,-16.18768 15.97532,11.84156 a 5.9999883,6.0397563 0 0 0 4.14995,1.68806 5.9999883,6.0397563 0 0 0 5.99997,-6.03957 5.9999883,6.0397563 0 0 0 -2.72824,-5.05516 l -0.009,-0.007 -24.00887,-17.79654 z"
     id="path6106-5" />
  <g
     id="g6256"
     transform="matrix(0.92141082,0,0,0.92141082,19.665452,28.949232)">
    <path
       inkscape:connector-curvature="0"
       id="path6170"
       d="M 172.79848,91.432992 C 76.674038,90.023543 17.336225,151.75742 17.336225,151.75742 c 0,0 10.00709,29.45749 101.480355,77.94254 z"
       style="fill:#fffe8d;fill-opacity:1;stroke:none;stroke-width:13;stroke-linecap:butt;stroke-linejoin:miter;stroke-miterlimit:4;stroke-dasharray:none;stroke-opacity:1" />
    <path
       id="path6172"
       d="M 168.2832,84.912109 C 72.047267,85.4593 12.650391,147.25391 12.650391,147.25391 l -2.7402348,2.84961 1.2714848,3.74414 c 0,0 1.096379,2.94799 3.753906,6.89843 2.657527,3.95045 7.072437,9.49275 14.328125,16.48243 14.511375,13.97935 40.378514,33.76315 86.509768,58.21484 l 6.44531,3.41602 60.04102,-153.789068 -9.36524,-0.136718 c -1.54603,-0.02267 -3.08377,-0.03017 -4.61133,-0.02148 z M 163.18945,98.171875 141.77734,153.01367 33.388672,146.24609 C 53.272338,130.22421 98.961804,100.11059 163.18945,98.171875 Z m -133.212888,60.886715 106.837888,6.67188 -21.36523,54.7207 c -41.160045,-22.37116 -64.472198,-40.3575 -77.166017,-52.58594 -3.516045,-3.38713 -6.216849,-6.32318 -8.306641,-8.80664 z"
       style="color:#000000;font-style:normal;font-variant:normal;font-weight:normal;font-stretch:normal;font-size:medium;line-height:normal;font-family:sans-serif;font-variant-ligatures:normal;font-variant-position:normal;font-variant-caps:normal;font-variant-numeric:normal;font-variant-alternates:normal;font-feature-settings:normal;text-indent:0;text-align:start;text-decoration:none;text-decoration-line:none;text-decoration-style:solid;text-decoration-color:#000000;letter-spacing:normal;word-spacing:normal;text-transform:none;writing-mode:lr-tb;direction:ltr;text-orientation:mixed;dominant-baseline:auto;baseline-shift:baseline;text-anchor:start;white-space:normal;shape-padding:0;clip-rule:nonzero;display:inline;overflow:visible;visibility:visible;opacity:1;isolation:auto;mix-blend-mode:normal;color-interpolation:sRGB;color-interpolation-filters:linearRGB;solid-color:#000000;solid-opacity:1;vector-effect:none;fill:#260f07;fill-opacity:1;fill-rule:nonzero;stroke:none;stroke-width:13;stroke-linecap:butt;stroke-linejoin:miter;stroke-miterlimit:4;stroke-dasharray:none;stroke-dashoffset:0;stroke-opacity:1;color-rendering:auto;image-rendering:auto;shape-rendering:auto;text-rendering:auto;enable-background:accumulate"
       inkscape:connector-curvature="0" />
  </g>
  <g
     id="g6329"
     transform="matrix(0.87215232,0.2972343,-0.2972343,0.87215232,56.699847,-9.987109)">
    <path
       inkscape:connector-curvature="0"
       id="path6262"
       d="m 205.07486,90.587321 c 0,0 25.65198,-42.847257 17.47717,-61.733876 -8.1748,-18.8866202 -26.77953,-6.765356 -29.31654,7.751971 0,0 1.2685,-19.16851 -11.83937,-18.88662 -13.10788,0.28189 -21.70552,23.396857 -21.70552,23.396857 0,0 -9.79728,-20.68472 -20.66056,-16.399206 -10.86328,4.285514 -13.55418,41.659181 8.47136,73.451713 z"
       style="fill:#de0033;fill-opacity:1;stroke:none;stroke-width:13;stroke-linecap:butt;stroke-linejoin:miter;stroke-miterlimit:4;stroke-dasharray:none;stroke-opacity:1" />
    <path
       id="path6262-1"
       d="m 181.25586,11.220703 c -10.34154,0.222399 -16.82489,8.231685 -21.07422,14.753906 -0.4943,0.75869 -0.69491,1.322037 -1.13672,2.066407 -0.239,-0.305952 -0.33742,-0.552466 -0.58789,-0.857422 -2.22212,-2.705541 -4.90669,-5.452678 -8.5,-7.416016 -3.59331,-1.963338 -8.62598,-2.946468 -13.3125,-1.097656 -5.63074,2.2213 -8.42686,7.318625 -10.17578,12.925781 -1.74892,5.607156 -2.42057,12.330119 -2.02734,19.869141 0.78644,15.078043 5.95447,33.426098 17.71679,50.404296 l 2.25977,3.26172 64.61914,-8.509766 1.61523,-2.695313 c 0,0 6.62966,-11.049275 12.23633,-24.644531 5.60667,-13.595256 11.41259,-29.647484 5.62891,-43.009766 -2.5014,-5.779087 -6.27785,-10.075307 -11.01758,-12.164062 -4.73973,-2.088755 -9.94217,-1.678487 -14.21094,0.0918 -2.83559,1.175937 -5.2874,3.002594 -7.5332,5.078125 -0.68553,-1.117834 -1.33124,-2.251366 -2.33984,-3.279297 -2.82841,-2.882586 -7.30231,-4.881814 -12.16016,-4.777344 z m 0.2793,12.996094 c 1.69608,-0.03647 1.98121,0.254491 2.60156,0.886719 0.62034,0.632228 1.35789,1.986461 1.83203,3.693359 0.94828,3.413795 0.78125,7.378906 0.78125,7.378906 l 0.01,0.002 a 6.5272517,6.3547015 0 0 0 -0.01,0.212891 6.5272517,6.3547015 0 0 0 6.52734,6.353516 6.5272517,6.3547015 0 0 0 6.44532,-5.402344 c 1.00799,-4.790635 5.19346,-9.744083 8.54687,-11.134766 1.7214,-0.713873 2.86118,-0.699829 3.98828,-0.203125 1.12711,0.496704 2.74212,1.767418 4.32813,5.431641 2.39113,5.524337 -0.54118,20.338644 -5.7168,32.888672 -4.14986,10.062739 -8.14467,17.207274 -9.88672,20.246093 L 150.75,91.185547 c -8.74202,-13.899485 -12.71563,-28.690902 -13.32617,-40.396485 -0.32934,-6.314149 0.33245,-11.723041 1.45508,-15.322265 1.12262,-3.599224 2.7362,-4.781669 2.53711,-4.703125 0.74511,-0.293946 1.00961,-0.297637 2.30859,0.412109 1.29898,0.709747 3.10044,2.327863 4.68555,4.257813 2.37766,2.894924 4.23032,6.209473 5.00781,7.685547 0.002,0.0039 0.002,0.002 0.004,0.0059 a 6.5272517,6.3547015 0 0 0 6.27539,4.617188 6.5272517,6.3547015 0 0 0 6.41015,-5.166016 c 0.6623,-1.608761 2.39013,-5.550984 4.9668,-9.50586 3.32646,-5.105733 7.69459,-8.794024 10.46094,-8.853515 z"
       style="color:#000000;font-style:normal;font-variant:normal;font-weight:normal;font-stretch:normal;font-size:medium;line-height:normal;font-family:sans-serif;font-variant-ligatures:normal;font-variant-position:normal;font-variant-caps:normal;font-variant-numeric:normal;font-variant-alternates:normal;font-feature-settings:normal;text-indent:0;text-align:start;text-decoration:none;text-decoration-line:none;text-decoration-style:solid;text-decoration-color:#000000;letter-spacing:normal;word-spacing:normal;text-transform:none;writing-mode:lr-tb;direction:ltr;text-orientation:mixed;dominant-baseline:auto;baseline-shift:baseline;text-anchor:start;white-space:normal;shape-padding:0;clip-rule:nonzero;display:inline;overflow:visible;visibility:visible;opacity:1;isolation:auto;mix-blend-mode:normal;color-interpolation:sRGB;color-interpolation-filters:linearRGB;solid-color:#000000;solid-opacity:1;vector-effect:none;fill:#260f07;fill-opacity:1;fill-rule:nonzero;stroke:none;stroke-width:13;stroke-linecap:butt;stroke-linejoin:miter;stroke-miterlimit:4;stroke-dasharray:none;stroke-dashoffset:0;stroke-opacity:1;color-rendering:auto;image-rendering:auto;shape-rendering:auto;text-rendering:auto;enable-background:accumulate"
       inkscape:connector-curvature="0" />
  </g>
  <g
     id="g6360"
     transform="matrix(0.91560799,0.10324684,-0.10324684,0.91560799,62.865416,-8.6566767)">
    <path
       inkscape:connector-curvature="0"
       id="path6262-9"
       d="m 234.48432,237.54184 c 0,0 42.84726,25.65198 61.73388,17.47717 18.88662,-8.1748 6.76535,-26.77953 -7.75198,-29.31654 0,0 19.16851,1.2685 18.88662,-11.83937 -0.28189,-13.10788 -23.39685,-21.70552 -23.39685,-21.70552 0,0 20.68472,-9.79728 16.3992,-20.66056 -4.28551,-10.86328 -41.65918,-13.55418 -73.45171,8.47136 z"
       style="fill:#ffff11;fill-opacity:1;stroke:none;stroke-width:13;stroke-linecap:butt;stroke-linejoin:miter;stroke-miterlimit:4;stroke-dasharray:none;stroke-opacity:1" />
    <path
       inkscape:connector-curvature="0"
       id="path6262-1-3"
       d="m 313.85094,213.72284 c -0.2224,-10.34154 -8.23169,-16.82489 -14.75391,-21.07422 -0.75869,-0.4943 -1.32204,-0.69491 -2.06641,-1.13672 0.30596,-0.239 0.55247,-0.33742 0.85743,-0.58789 2.70554,-2.22212 5.45267,-4.90669 7.41601,-8.5 1.96334,-3.59331 2.94647,-8.62598 1.09766,-13.3125 -2.2213,-5.63074 -7.31863,-8.42686 -12.92578,-10.17578 -5.60716,-1.74892 -12.33012,-2.42057 -19.86914,-2.02734 -15.07805,0.78644 -33.4261,5.95447 -50.4043,17.71679 l -3.26172,2.25977 8.50977,64.61914 2.69531,1.61523 c 0,0 11.04927,6.62966 24.64453,12.23633 13.59526,5.60667 29.64748,11.41259 43.00977,5.62891 5.77908,-2.5014 10.0753,-6.27785 12.16406,-11.01758 2.08875,-4.73973 1.67849,-9.94217 -0.0918,-14.21094 -1.17594,-2.83559 -3.0026,-5.2874 -5.07813,-7.5332 1.11784,-0.68553 2.25137,-1.33124 3.2793,-2.33984 2.88259,-2.82841 4.88181,-7.30231 4.77734,-12.16016 z m -12.9961,0.2793 c 0.0365,1.69608 -0.25449,1.98121 -0.88672,2.60156 -0.63222,0.62034 -1.98646,1.35789 -3.69336,1.83203 -3.41379,0.94828 -7.3789,0.78125 -7.3789,0.78125 l -0.002,0.01 a 6.3547015,6.5272517 0 0 0 -0.21289,-0.01 6.3547015,6.5272517 0 0 0 -6.35352,6.52734 6.3547015,6.5272517 0 0 0 5.40235,6.44532 c 4.79063,1.00799 9.74408,5.19346 11.13476,8.54687 0.71388,1.7214 0.69983,2.86118 0.20313,3.98828 -0.49671,1.12711 -1.76742,2.74212 -5.43164,4.32813 -5.52434,2.39113 -20.33865,-0.54118 -32.88868,-5.7168 -10.06273,-4.14986 -17.20727,-8.14467 -20.24609,-9.88672 l -6.61519,-50.23242 c 13.89949,-8.74202 28.6909,-12.71563 40.39649,-13.32617 6.31415,-0.32934 11.72304,0.33245 15.32226,1.45508 3.59923,1.12262 4.78167,2.7362 4.70313,2.53711 0.29394,0.74511 0.29764,1.00961 -0.41211,2.30859 -0.70975,1.29898 -2.32786,3.10044 -4.25781,4.68555 -2.89493,2.37766 -6.20948,4.23032 -7.68555,5.00781 -0.004,0.002 -0.002,0.002 -0.006,0.004 a 6.3547015,6.5272517 0 0 0 -4.61719,6.27539 6.3547015,6.5272517 0 0 0 5.16602,6.41015 c 1.60876,0.6623 5.55098,2.39013 9.50586,4.9668 5.10573,3.32646 8.79402,7.69459 8.85351,10.46094 z"
       style="color:#000000;font-style:normal;font-variant:normal;font-weight:normal;font-stretch:normal;font-size:medium;line-height:normal;font-family:sans-serif;font-variant-ligatures:normal;font-variant-position:normal;font-variant-caps:normal;font-variant-numeric:normal;font-variant-alternates:normal;font-feature-settings:normal;text-indent:0;text-align:start;text-decoration:none;text-decoration-line:none;text-decoration-style:solid;text-decoration-color:#000000;letter-spacing:normal;word-spacing:normal;text-transform:none;writing-mode:lr-tb;direction:ltr;text-orientation:mixed;dominant-baseline:auto;baseline-shift:baseline;text-anchor:start;white-space:normal;shape-padding:0;clip-rule:nonzero;display:inline;overflow:visible;visibility:visible;opacity:1;isolation:auto;mix-blend-mode:normal;color-interpolation:sRGB;color-interpolation-filters:linearRGB;solid-color:#000000;solid-opacity:1;vector-effect:none;fill:#260f07;fill-opacity:1;fill-rule:nonzero;stroke:none;stroke-width:13;stroke-linecap:butt;stroke-linejoin:miter;stroke-miterlimit:4;stroke-dasharray:none;stroke-dashoffset:0;stroke-opacity:1;color-rendering:auto;image-rendering:auto;shape-rendering:auto;text-rendering:auto;enable-background:accumulate" />
  </g>
  <g
     id="g6333"
     transform="matrix(0.92141082,0,0,0.92141082,19.665452,28.949232)">
    <ellipse
       style="fill:#ffff11;fill-opacity:1;stroke:none;stroke-width:13;stroke-miterlimit:4;stroke-dasharray:none;stroke-opacity:1"
       ry="103.94862"
       rx="104.84559"
       cy="175.89865"
       cx="178.19765"
       id="path3812" />
    <path
       inkscape:connector-curvature="0"
       id="path3812-7"
       d="m 178.19727,65.449219 c -61.38743,0 -111.345707,49.496801 -111.345708,110.449221 0,60.95241 49.958278,110.44922 111.345708,110.44922 61.38742,0 111.3457,-49.49681 111.3457,-110.44922 0,-60.95242 -49.95828,-110.449221 -111.3457,-110.449221 z m 0,13 c 54.42181,0 98.3457,43.583151 98.3457,97.449221 0,53.86606 -43.92389,97.44922 -98.3457,97.44922 -54.42182,0 -98.345708,-43.58316 -98.345708,-97.44922 0,-53.86607 43.923888,-97.449221 98.345708,-97.449221 z"
       style="color:#000000;font-style:normal;font-variant:normal;font-weight:normal;font-stretch:normal;font-size:medium;line-height:normal;font-family:sans-serif;font-variant-ligatures:normal;font-variant-position:normal;font-variant-caps:normal;font-variant-numeric:normal;font-variant-alternates:normal;font-feature-settings:normal;text-indent:0;text-align:start;text-decoration:none;text-decoration-line:none;text-decoration-style:solid;text-decoration-color:#000000;letter-spacing:normal;word-spacing:normal;text-transform:none;writing-mode:lr-tb;direction:ltr;text-orientation:mixed;dominant-baseline:auto;baseline-shift:baseline;text-anchor:start;white-space:normal;shape-padding:0;clip-rule:nonzero;display:inline;overflow:visible;visibility:visible;opacity:1;isolation:auto;mix-blend-mode:normal;color-interpolation:sRGB;color-interpolation-filters:linearRGB;solid-color:#000000;solid-opacity:1;vector-effect:none;fill:#260f07;fill-opacity:1;fill-rule:nonzero;stroke:none;stroke-width:13;stroke-linecap:butt;stroke-linejoin:miter;stroke-miterlimit:4;stroke-dasharray:none;stroke-dashoffset:0;stroke-opacity:1;color-rendering:auto;image-rendering:auto;shape-rendering:auto;text-rendering:auto;enable-background:accumulate" />
  </g>
  <ellipse
     style="opacity:1;vector-effect:none;fill:#260f07;fill-opacity:1;fill-rule:evenodd;stroke-width:0.66488785;stroke-linecap:butt;stroke-linejoin:miter;stroke-miterlimit:4;stroke-dasharray:none;stroke-dashoffset:0;stroke-opacity:1"
     id="path6362"
     cx="332.17996"
     cy="184.99904"
     rx="10.922101"
     ry="11.084801"
     transform="matrix(0.95293976,0.30315971,-0.9371802,0.34884563,0,0)" />
</svg>
